<svg width="200" height="84" viewBox="0 0 200 84" fill="none" xmlns="http://www.w3.org/2000/svg">
<path d="M15.6493 0C15.1803 8.47051 15.063 15.5294 15.063 28.0001V49.9999C15.0631 65.5293 24.3271 75.294 38.9855 75.294C53.6439 75.294 61.2663 66.8235 62.5562 53.1764C63.0253 49.7646 63.1426 45.2941 63.1426 41.4117C63.1426 29.6471 62.2044 14.8235 60.5628 0H69.475L69.3577 47.4117C69.2406 70.4706 56.3411 84 34.7638 84C13.3039 84 0.756384 70.4706 0.756365 48.3529V28.0001C0.756365 15.2941 0.639004 8.70596 0.0527344 0H15.6493ZM189.467 41.6329C181.333 43.9118 174.582 48.4956 169.323 55.354C161.888 65.049 159.481 76.3039 158.699 82.5174H138.686C140.002 68.1035 145.387 53.8115 153.548 43.1754C163.708 29.9336 177.909 22.1165 194.883 20.3475L189.467 41.6329ZM103.131 0C121.19 0 131.861 6.82351 131.861 18.9412C131.861 28.8235 125.06 36.2353 112.395 38.3529C127.757 39.7646 135.262 46.9411 135.262 58.8235C135.262 73.2941 123.301 82.353 103.131 82.353H78.3875C78.8566 74.3529 79.0911 67.8823 79.0912 54.2353V28.1176C79.0911 14.5882 78.8566 8.00006 78.3875 0H103.131ZM93.0459 76.5882H102.662C114.037 76.5882 120.721 69.8823 120.721 58.7059C120.721 47.5294 113.919 41.647 103.248 41.647H93.0459V76.5882ZM93.0459 35.8824H102.31C111.34 35.8824 117.907 29.4118 117.907 20C117.907 10.5883 111.926 5.52948 102.427 5.52947H93.0459V35.8824ZM194.878 20.3038H136.736L141.73 0.334262H199.873L194.878 20.3038Z" fill="black"/>
</svg>
