<svg xmlns="http://www.w3.org/2000/svg" width="1311" height="548" fill="none">
  
  
    <path
      fill="#000000"
      d="M1277.45 132.743c-111.26 11.541-204.35 62.538-270.95 148.925-53.491 69.388-88.793 162.626-97.42 256.66h131.19c5.12-40.536 20.9-113.961 69.64-177.209 34.47-44.743 78.72-74.647 132.04-89.514M227.872 548C87.202 548 4.953 459.737 4.953 315.445V182.667C4.953 99.776 4.184 56.796.341 0h102.235c-3.074 55.26-3.843 101.311-3.843 182.667V326.19c0 101.311 60.726 165.014 156.812 165.014 96.086 0 146.051-55.26 154.506-144.291 3.075-22.258 3.844-51.423 3.844-76.751 0-76.75-6.15-173.456-16.911-270.162h58.42l-.769 309.305C453.867 459.737 369.311 548 227.872 548ZM676.018 537.255H513.825c3.075-52.191 4.612-94.404 4.612-183.434V183.434c0-88.263-1.537-131.243-4.612-183.434h162.193c118.378 0 188.329 44.515 188.329 123.569 0 64.47-44.584 112.823-127.603 126.638 100.698 9.21 149.894 56.028 149.894 133.546 0 94.404-78.406 153.502-210.62 153.502Zm-5.381-303.165c59.189 0 102.236-42.213 102.236-103.614 0-61.4-39.203-94.403-101.467-94.403h-61.495V234.09h60.726Zm2.306 265.557c74.563 0 118.378-43.748 118.378-116.661 0-72.913-44.584-111.289-114.534-111.289h-66.876v227.95h63.032ZM1277.42 132.458H896.297l32.74-130.277h381.123l-32.74 130.277Z"
    />
  
</svg>
