<svg width="1311" height="548" viewBox="0 0 1311 548" fill="none" xmlns="http://www.w3.org/2000/svg">
<mask id="mask0_1341_3952" style="mask-type:alpha" maskUnits="userSpaceOnUse" x="0" y="0" width="1311" height="548">
<path d="M1277.45 132.743C1166.19 144.284 1073.1 195.281 1006.5 281.668C953.009 351.056 917.707 444.294 909.08 538.328H1040.27C1045.39 497.792 1061.17 424.367 1109.91 361.119C1144.38 316.376 1188.63 286.472 1241.95 271.605" fill="#1A1A1A"/>
<path d="M227.872 548C87.2027 548 4.95313 459.737 4.95313 315.445V182.667C4.95313 99.7759 4.18444 56.7955 0.341003 0H102.576C99.5017 55.2605 98.733 101.311 98.733 182.667V326.19C98.733 427.501 159.459 491.204 255.545 491.204C351.631 491.204 401.596 435.944 410.051 346.913C413.126 324.655 413.895 295.49 413.895 270.162C413.895 193.412 407.745 96.7059 396.984 0H455.404L454.635 309.305C453.867 459.737 369.311 548 227.872 548Z" fill="#1A1A1A"/>
<path d="M676.018 537.255H513.825C516.9 485.064 518.437 442.851 518.437 353.821V183.434C518.437 95.1709 516.9 52.1905 513.825 0H676.018C794.396 0 864.347 44.5154 864.347 123.569C864.347 188.039 819.763 236.392 736.744 250.207C837.442 259.417 886.638 306.235 886.638 383.753C886.638 478.157 808.232 537.255 676.018 537.255ZM670.637 234.09C729.826 234.09 772.873 191.877 772.873 130.476C772.873 69.0756 733.67 36.0728 671.406 36.0728H609.911V234.09H670.637ZM672.943 499.647C747.506 499.647 791.321 455.899 791.321 382.986C791.321 310.073 746.737 271.697 676.787 271.697H609.911V499.647H672.943Z" fill="#1A1A1A"/>
<path d="M1277.42 132.458H896.297L929.037 2.18066H1310.16L1277.42 132.458Z" fill="#1A1A1A"/>
</mask>
<g mask="url(#mask0_1341_3952)">
<rect x="-47.5741" y="-180.542" width="1357.74" height="753.854" fill="url(#paint0_linear_1341_3952)"/>
</g>
<defs>
<linearGradient id="paint0_linear_1341_3952" x1="631.295" y1="-180.542" x2="631.295" y2="660.071" gradientUnits="userSpaceOnUse">
<stop offset="0.1875" stop-color="#D9D9D9"/>
<stop offset="0.307692" stop-color="#FEFFC2"/>
<stop offset="0.639423" stop-color="#7EFA50"/>
<stop offset="0.913462" stop-color="#09603D"/>
</linearGradient>
</defs>
</svg>
